# xmcd
#
# Track frame offsets:
#	150
#	21805
#	40265
#	60905
#	85810
#	109187
#	128195
#	149325
#	170495
#	195340
#	213600
#	237587
#	256267
#	273777
#	292582
#	313315
#
# Disc length: 4415 seconds
#
# Revision: 5
# Processed by: cddbd v1.5.1PL0 Copyright (c) Steve Scherf et al.
# Submitted via: audiograbber 1.83.01
#
DISCID=e1113d10
DTITLE=Celine Dion - All The Way - A Decade Of Song
DYEAR=1900
DGENRE=Blues
TTITLE0=The Power Of Love (radio edit)
TTITLE1=Beauty And The Beast (duet with Peabo Bryson)
TTITLE2=Because You Loved Me (theme from "Up Close and Personal")
TTITLE3=It's All Coming Back To Me Now
TTITLE4=Sola Otra Vez
TTITLE5=Immortality
TTITLE6=To Love You More
TTITLE7=My Heart Will Go On (love theme from "Titanic")
TTITLE8=I'm Your Angel (duet with R. Kelly)
TTITLE9=That's The Way It Is
TTITLE10=If Walls Could Talk
TTITLE11=The First Time Ever I Saw Your Face
TTITLE12=All The Way (duet with Frank Sinatra)
TTITLE13=Then You Look At Me
TTITLE14=I Want You To Need Me
TTITLE15=Live For The One You Love
EXTD=ID3G:   0
EXTT0=
EXTT1=
EXTT2=
EXTT3=
EXTT4=
EXTT5=
EXTT6=
EXTT7=
EXTT8=
EXTT9=
EXTT10=
EXTT11=
EXTT12=
EXTT13=
EXTT14=
EXTT15=
PLAYORDER=
